<?xml version="1.0" encoding="utf-8"?>
<!-- Generator: Adobe Illustrator 16.0.3, SVG Export Plug-In . SVG Version: 6.00 Build 0)  -->
<!DOCTYPE svg PUBLIC "-//W3C//DTD SVG 1.1//EN" "http://www.w3.org/Graphics/SVG/1.1/DTD/svg11.dtd">
<svg version="1.1" xmlns="http://www.w3.org/2000/svg" xmlns:xlink="http://www.w3.org/1999/xlink" x="0px" y="0px" width="1920px"
	 height="1080px" viewBox="0 0 1920 1080" enable-background="new 0 0 1920 1080" xml:space="preserve">
<g id="レイヤー_2">
	
		<rect x="1031.842" y="312.152" transform="matrix(0.7071 -0.7071 0.7071 0.7071 -342.6606 1845.0532)" opacity="0.1" width="2048.004" height="2048.004"/>
	
		<rect x="-1391.846" y="-1503.848" transform="matrix(0.7071 -0.7071 0.7071 0.7071 231.5632 -400.6488)" opacity="0.1" width="2048.004" height="2048.004"/>
	
		<rect x="-253.961" y="-253.962" transform="matrix(0.7071 -0.7071 0.7071 0.7071 -0.8443 2.0389)" opacity="0.1" fill="#F7F8F8" width="512.001" height="512.001"/>
	
		<rect x="1412.077" y="571.92" transform="matrix(0.7071 -0.7071 0.7071 0.7071 -202.8979 1678.0032)" opacity="0.1" fill="#F7F8F8" width="1024.002" height="1024.002"/>
	
		<rect x="1032.154" y="415.84" transform="matrix(0.7071 -0.7071 0.7071 0.7071 -415.8872 1875.6436)" opacity="0.1" fill="#F7F8F8" width="2048.004" height="2048.004"/>
	
		<rect x="-643.923" y="-635.924" transform="matrix(0.7071 -0.7071 0.7071 0.7071 48.9877 -129.5791)" opacity="0.1" fill="#F7F8F8" width="1024.002" height="1024.002"/>
	
		<rect x="-1392.158" y="-1375.848" transform="matrix(0.7071 -0.7071 0.7071 0.7071 140.962 -363.3793)" opacity="0.1" fill="#F7F8F8" width="2048.004" height="2048.004"/>
	
		<rect x="816.154" y="96.152" transform="matrix(0.7071 -0.7071 0.7071 0.7071 -253.0991 1629.2739)" opacity="0.1" fill="#F7F8F8" width="2048.004" height="2048.004"/>
	
		<rect x="-1136.158" y="-1303.848" transform="matrix(0.7071 -0.7071 0.7071 0.7071 165.0311 -161.2715)" opacity="0.1" width="2048.004" height="2048.004"/>
	
		<rect x="855.842" y="295.84" transform="matrix(0.7071 -0.7071 0.7071 0.7071 -382.6753 1715.8245)" opacity="0.1" width="2048.004" height="2048.004"/>
	
		<rect x="1384.154" y="656.152" transform="matrix(0.7071 -0.7071 0.7071 0.7071 -482.7153 2194.9312)" opacity="0.1" width="2048.004" height="2048.004"/>
	<g opacity="0.1">
		
			<rect x="767.842" y="271.84" transform="matrix(0.7071 -0.7071 0.7071 0.7071 -391.4795 1646.5696)" fill="#FFFFFF" width="2048.004" height="2048.004"/>
	</g>
</g>
<g id="レイヤー_3">
	
		<rect x="-256.158" y="967.84" transform="matrix(0.7071 -0.7071 0.7071 0.7071 -1183.5492 1126.3458)" opacity="0.1" width="2048.004" height="2048.004"/>
	
		<rect x="1031.842" y="1152.152" transform="matrix(0.7071 -0.7071 0.7071 0.7071 -936.6309 2091.084)" opacity="0.1" width="2048.004" height="2048.004"/>
</g>
<g id="レイヤー_4">
	<g opacity="0.1">
		
			<rect x="-664.158" y="1247.84" transform="matrix(0.7071 -0.7071 0.7071 0.7071 -1501.0398 919.8563)" fill="#FFFFFF" width="2048.004" height="2048.004"/>
	</g>
	<g opacity="0.1">
		
			<rect x="496.154" y="1120.152" transform="matrix(0.7071 -0.7071 0.7071 0.7071 -1070.9028 1702.9227)" fill="#FFFFFF" width="2048.004" height="2048.004"/>
	</g>
	<g opacity="0.1">
		
			<rect x="1263.842" y="767.84" transform="matrix(0.7071 -0.7071 0.7071 0.7071 -596.9292 2142.5701)" fill="#FFFFFF" width="2048.004" height="2048.004"/>
	</g>
	<g>
	</g>
	<g>
	</g>
	<g>
	</g>
	<g>
	</g>
	<g>
	</g>
	<g>
	</g>
</g>
</svg>
