<?xml version="1.0" encoding="utf-8"?>
<!-- Generator: Adobe Illustrator 16.0.3, SVG Export Plug-In . SVG Version: 6.00 Build 0)  -->
<!DOCTYPE svg PUBLIC "-//W3C//DTD SVG 1.1//EN" "http://www.w3.org/Graphics/SVG/1.1/DTD/svg11.dtd">
<svg version="1.1" id="レイヤー_1" xmlns="http://www.w3.org/2000/svg" xmlns:xlink="http://www.w3.org/1999/xlink" x="0px"
	 y="0px" width="512px" height="512px" viewBox="0 0 512 512" enable-background="new 0 0 512 512" xml:space="preserve">
<g id="icomoon-ignore">
</g>
<path opacity="0.5" fill="#FFFFFF" d="M458.903,114.538c-11.105-15.146-26.587-32.85-43.589-49.852s-34.706-32.482-49.852-43.589
	C339.675,2.187,327.166,0,320,0H72C49.944,0,32,17.944,32,40v432c0,22.057,17.943,40,40,40h368c22.056,0,40-17.943,40-40V160
	C480,152.834,477.814,140.325,458.903,114.538L458.903,114.538z M392.687,87.313c15.35,15.35,27.4,29.199,36.29,40.687H352V51.027
	C363.491,59.917,377.339,71.966,392.687,87.313L392.687,87.313z M448,472c0,4.337-3.664,8-8,8H72c-4.336,0-8-3.663-8-8V40
	c0-4.336,3.664-8,8-8c0,0,247.978-0.001,248,0v112c0,8.836,7.162,16,16,16h112V472z"/>
</svg>
